<?xml version="1.0" standalone="no"?><!DOCTYPE svg PUBLIC "-//W3C//DTD SVG 1.1//EN" "http://www.w3.org/Graphics/SVG/1.1/DTD/svg11.dtd"><svg t="1766047424331" class="icon" viewBox="0 0 1024 1024" version="1.1" xmlns="http://www.w3.org/2000/svg" p-id="10851" xmlns:xlink="http://www.w3.org/1999/xlink" width="32" height="32"><path d="M352.439482 837.906844l-0.441199-559.092204a46.442016 46.442016 0 0 1 92.884031 0l0.441199 559.092204a46.442016 46.442016 0 0 1-92.884031 0z m232.210078 0l-0.441199-559.092204a46.442016 46.442016 0 0 1 92.884031 0l0.441199 559.092204a46.442016 46.442016 0 0 1-92.884031 0zM954.235119 187.347091l-414.123452 0.185768c-0.650188 0.023221-1.253934 0.185768-1.904123 0.185768-0.650188 0-1.253934-0.162547-1.904122-0.185768l-42.865981 0.023221c-0.580525 0.023221-1.114608 0.162547-1.671912 0.162547-0.580525 0-1.114608-0.139326-1.671913-0.162547L212.97411 187.695406l0.371536 743.095469h0.626967l-0.603746-94.393397c0 78.858542 18.367817 92.884031 92.884031 92.884031l-60.978366 1.509366 527.023992-0.325094-48.021044-1.184272c73.2855 0 92.140959-13.886163 92.767926-89.331216l-0.348316-560.880222a46.442016 46.442016 0 0 1 92.884031 0l0.394758 651.744025a92.884031 92.884031 0 0 1-92.837589 92.466053h-46.442016v0.069663l-510.862171 0.301873v-0.371536h-46.442015a92.884031 92.884031 0 0 1-92.884031-92.884031v-49.344642h-0.069663L120.090079 187.741848l-50.064493 0.023221a46.442016 46.442016 0 0 1 0-92.884031l85.221098-0.046442a46.209805 46.209805 0 0 1 11.262189-1.532587c3.901129 0 7.616491 0.626967 11.215747 1.532587l267.389904-0.139326-0.23221-48.090707a46.442016 46.442016 0 0 1 46.442016-46.442016c8.498889 0 16.37081 2.438206 23.221007 6.432219a45.907932 45.907932 0 0 1 23.221008-6.432219 46.442016 46.442016 0 0 1 46.442016 46.442016l0.23221 48.021044 369.794548-0.185768a46.442016 46.442016 0 0 1 0 92.907252z m-137.143271 743.095469l-0.046442-76.234569-0.487642 76.234569h0.534084z" fill="#FFFFFF" p-id="10852"></path></svg>